# xmcd CD database file
#
# Track frame offsets:
#	150
#	12492
#	23022
#	38412
#	59425
#	76882
#	90060
#	104592
#	119640
#	133612
#	153700
#	165992
#	186692
#	203330
#	221152
#	241930
#	264500
#	289577
#
# Disc length: 4074 seconds
#
# Revision: 8
# Processed by: cddbd v1.5.2PL0 Copyright (c) Steve Scherf et al.
# Submitted via: CDex 1.79
#
DISCID=f10fe812
DTITLE=Aaron Neville - The Very Best of Aaron Neville
DYEAR=2000
DGENRE=Country
TTITLE0=Tell It Like It Is
TTITLE1=Over You
TTITLE2=The Bells
TTITLE3=Don't Take Away My Heaven
TTITLE4=Warm Your Heart
TTITLE5=You Never Can Tell
TTITLE6=Close Your Eyes
TTITLE7=The Grand Tour
TTITLE8=Louisiana 1927
TTITLE9=Everybody Plays the Fool
TTITLE10=Don't Go, Please Stay
TTITLE11=Angola Bound
TTITLE12=A Change Is Gonna Come
TTITLE13=Betcha by Golly, Wow
TTITLE14=Stardust
TTITLE15=Use Me
TTITLE16=To Make Me Who I Am
TTITLE17=Don't Know Much
EXTD=YEAR: 2000
EXTT0=
EXTT1=
EXTT2=
EXTT3=
EXTT4=
EXTT5=
EXTT6=
EXTT7=
EXTT8=
EXTT9=
EXTT10=
EXTT11=
EXTT12=
EXTT13=
EXTT14=
EXTT15=
EXTT16=
EXTT17=
PLAYORDER=
